<?xml version="1.0" encoding="UTF-8"?>
<svg id="_레이어_1" data-name="레이어_1" xmlns="http://www.w3.org/2000/svg" version="1.1" viewBox="0 0 600 600">
  <!-- Generator: Adobe Illustrator 30.7.0, SVG Export Plug-In . SVG Version: 2.1.4 Build 114)  -->
  <defs>
    <style>
      .st0 {
        fill: #414141;
      }
    </style>
  </defs>
  <polygon class="st0" points="374.75 271.95 337.69 308.34 305.98 279.5 312.54 273.66 337.49 296.28 365.79 268.76 365.76 241.82 335.2 241.81 306.6 268.37 262.9 308.47 225.63 272.15 225.46 232.96 268.57 232.85 294.82 256.96 288.18 262.71 265.39 241.86 234.5 241.78 234.57 268.55 263.21 296.44 331.83 232.91 374.74 232.89 374.75 271.95"/>
  <g>
    <path d="M245.34,336.97l6.93,17.48,6.93-17.48h1.44l-7.8,19.79h-1.3l-7.8-19.79h1.59Z"/>
    <path d="M273.08,336.97v19.79h-1.44v-19.79h1.44Z"/>
    <path d="M289.4,355.69c-1.52-.91-2.72-2.14-3.6-3.7-.88-1.56-1.31-3.29-1.31-5.2s.43-3.63,1.29-5.17c.86-1.54,2.03-2.75,3.52-3.62,1.49-.88,3.16-1.31,5.01-1.31s3.52.44,5.01,1.31c1.49.88,2.67,2.08,3.52,3.62.86,1.54,1.29,3.26,1.29,5.17s-.42,3.64-1.27,5.2c-.85,1.56-2.01,2.79-3.48,3.7s-3.12,1.36-4.93,1.36-3.53-.45-5.06-1.36ZM298.57,354.56c1.28-.79,2.29-1.87,3.02-3.24.73-1.37,1.1-2.88,1.1-4.54s-.37-3.16-1.1-4.51c-.73-1.35-1.74-2.4-3.02-3.16-1.28-.76-2.7-1.14-4.26-1.14s-2.97.38-4.22,1.14-2.23,1.82-2.95,3.16c-.71,1.35-1.07,2.85-1.07,4.51s.36,3.19,1.07,4.55c.71,1.36,1.69,2.43,2.95,3.22,1.25.79,2.66,1.18,4.22,1.18s2.98-.39,4.26-1.18Z"/>
    <path d="M327.17,338.43c1.11.97,1.66,2.27,1.66,3.88,0,1.5-.48,2.75-1.44,3.73-.96.98-2.46,1.47-4.48,1.47l7.37,9.25h-1.88l-7.37-9.25h-3.9v9.25h-1.44v-19.79h6.93c1.93,0,3.44.49,4.55,1.46ZM317.13,346.36h5.63c1.48,0,2.62-.36,3.42-1.08.8-.72,1.2-1.71,1.2-2.96s-.4-2.24-1.2-2.96c-.8-.72-1.94-1.08-3.42-1.08h-5.63v8.09Z"/>
    <path d="M348.16,336.97l8.09,19.79h-1.59l-2.46-5.92h-9.39l-2.46,5.92h-1.59l8.09-19.79h1.3ZM347.44,338.84l-4.19,10.69h8.38l-4.19-10.69Z"/>
  </g>
</svg>